<svg xmlns="http://www.w3.org/2000/svg" xmlns:xlink="http://www.w3.org/1999/xlink" width="94" height="95" viewBox="0 0 94 95">
  <defs>
    <filter id="Ellipse_8" x="0" y="0" width="94" height="95" filterUnits="userSpaceOnUse">
      <feOffset input="SourceAlpha"/>
      <feGaussianBlur stdDeviation="1" result="blur"/>
      <feFlood flood-opacity="0.161"/>
      <feComposite operator="in" in2="blur"/>
      <feComposite in="SourceGraphic"/>
    </filter>
  </defs>
  <g id="Group_69" data-name="Group 69" transform="translate(2.5 2.85)">
    <g id="Group_44" data-name="Group 44" transform="translate(0 0)">
      <g transform="matrix(1, 0, 0, 1, -2.5, -2.85)" filter="url(#Ellipse_8)">
        <ellipse id="Ellipse_8-2" data-name="Ellipse 8" cx="44" cy="44.5" rx="44" ry="44.5" transform="translate(3 3)" fill="#fff"/>
      </g>
    </g>
    <g id="steak" transform="translate(22.2 22.2)">
      <circle id="Ellipse_9" data-name="Ellipse 9" cx="22.181" cy="22.181" r="22.181" fill="#ffe65a"/>
      <g id="Group_45" data-name="Group 45" transform="translate(1.098 2.139)">
        <circle id="Ellipse_10" data-name="Ellipse 10" cx="19.331" cy="19.331" r="19.331" fill="#fff"/>
      </g>
      <g id="Group_46" data-name="Group 46" transform="translate(4.375 5.443)">
        <circle id="Ellipse_11" data-name="Ellipse 11" cx="16.056" cy="16.056" r="16.056" fill="#afe6ff"/>
      </g>
      <g id="Group_47" data-name="Group 47" transform="translate(6.605 7.673)">
        <circle id="Ellipse_12" data-name="Ellipse 12" cx="13.826" cy="13.826" r="13.826" fill="#fff"/>
      </g>
      <g id="Group_62" data-name="Group 62" transform="translate(19.468 3.514)">
        <g id="Group_48" data-name="Group 48" transform="translate(0 0)">
          <path id="Path_124" data-name="Path 124" d="M0,0H1.5V37.05H0Z" transform="matrix(0.839, -0.544, 0.544, 0.839, 0, 0.815)" fill="#50555a"/>
        </g>
        <g id="Group_49" data-name="Group 49" transform="translate(19.038 30.386)">
          <path id="Path_125" data-name="Path 125" d="M443.375,394.117a2.947,2.947,0,1,1,2.219-.408h0A2.94,2.94,0,0,1,443.375,394.117Zm.917-4.3a1.449,1.449,0,1,0,.914.628A1.445,1.445,0,0,0,444.292,389.818Z" transform="translate(-441.042 -388.287)" fill="#50555a"/>
        </g>
        <g id="Group_52" data-name="Group 52" transform="translate(1.444 3.519)">
          <g id="Group_50" data-name="Group 50" transform="translate(0 0)">
            <path id="Path_126" data-name="Path 126" d="M241.17,86.205l-1.444-2.227A1.288,1.288,0,0,1,240.1,82.2l2.227-1.444a1.288,1.288,0,0,1,1.777.379l1.444,2.227a1.288,1.288,0,0,1-.379,1.777l-2.227,1.444A1.288,1.288,0,0,1,241.17,86.205Z" transform="translate(-239.52 -80.552)" fill="#e33442"/>
          </g>
          <g id="Group_51" data-name="Group 51">
            <path id="Path_127" data-name="Path 127" d="M240.686,83.1l2.227-1.444a1.288,1.288,0,0,1,1.777.379l-.583-.9a1.288,1.288,0,0,0-1.777-.379L240.1,82.2a1.288,1.288,0,0,0-.379,1.777l.583.9A1.288,1.288,0,0,1,240.686,83.1Z" transform="translate(-239.519 -80.552)" fill="#aa321e"/>
          </g>
        </g>
        <g id="Group_55" data-name="Group 55" transform="translate(11.986 19.775)">
          <g id="Group_53" data-name="Group 53" transform="translate(0)">
            <path id="Path_128" data-name="Path 128" d="M361.926,272.4l-1.444-2.227a1.288,1.288,0,0,1,.379-1.777l2.227-1.444a1.288,1.288,0,0,1,1.777.379l1.444,2.227a1.288,1.288,0,0,1-.379,1.777L363.7,272.78A1.288,1.288,0,0,1,361.926,272.4Z" transform="translate(-360.276 -266.748)" fill="#e33442"/>
          </g>
          <g id="Group_54" data-name="Group 54">
            <path id="Path_129" data-name="Path 129" d="M361.442,269.3l2.227-1.444a1.288,1.288,0,0,1,1.777.379l-.583-.9a1.288,1.288,0,0,0-1.777-.379l-2.227,1.444a1.288,1.288,0,0,0-.379,1.777l.583.9A1.288,1.288,0,0,1,361.442,269.3Z" transform="translate(-360.275 -266.748)" fill="#aa321e"/>
          </g>
        </g>
        <g id="Group_56" data-name="Group 56" transform="translate(4.369 8.745)">
          <path id="Path_130" data-name="Path 130" d="M274.11,146.093l-.974-1.5a.66.66,0,0,1,.195-.913l4.874-3.161a.661.661,0,0,1,.913.195l.974,1.5a.66.66,0,0,1-.195.913l-4.874,3.161A.66.66,0,0,1,274.11,146.093Z" transform="translate(-273.03 -140.41)" fill="#97d729"/>
        </g>
        <g id="Group_57" data-name="Group 57" transform="translate(4.369 8.745)">
          <path id="Path_131" data-name="Path 131" d="M273.913,144.576l4.874-3.161a.66.66,0,0,1,.913.195l-.583-.9a.66.66,0,0,0-.913-.195l-4.874,3.161a.66.66,0,0,0-.195.913l.583.9A.66.66,0,0,1,273.913,144.576Z" transform="translate(-273.029 -140.411)" fill="#82bd1c"/>
        </g>
        <g id="Group_58" data-name="Group 58" transform="translate(8.836 14.251)">
          <circle id="Ellipse_13" data-name="Ellipse 13" cx="2.199" cy="2.199" r="2.199" fill="#ffebb4"/>
        </g>
        <g id="Group_59" data-name="Group 59" transform="translate(8.836 14.25)">
          <path id="Path_132" data-name="Path 132" d="M325.6,204.452a2.2,2.2,0,0,1,2.809.353,2.2,2.2,0,1,0-3.632,2.356A2.2,2.2,0,0,1,325.6,204.452Z" transform="translate(-324.19 -203.469)" fill="#f0d897"/>
        </g>
        <g id="Group_60" data-name="Group 60" transform="translate(16.35 25.836)">
          <circle id="Ellipse_14" data-name="Ellipse 14" cx="2.199" cy="2.199" r="2.199" fill="#ffebb4"/>
        </g>
        <g id="Group_61" data-name="Group 61" transform="translate(16.35 25.836)">
          <path id="Path_133" data-name="Path 133" d="M411.664,337.154a2.2,2.2,0,0,1,2.809.353,2.2,2.2,0,1,0-3.632,2.356A2.2,2.2,0,0,1,411.664,337.154Z" transform="translate(-410.254 -336.171)" fill="#f0d897"/>
        </g>
      </g>
      <g id="Group_64" data-name="Group 64" transform="translate(7.706 0.871)">
        <path id="Path_134" data-name="Path 134" d="M96.514,17.724a1.575,1.575,0,0,1-.669-1.266,2.825,2.825,0,0,0-.2-1.064,2.912,2.912,0,0,0-1.412-1.516,1.6,1.6,0,0,1-.869-1.257,3.1,3.1,0,0,0-.2-.817,2.527,2.527,0,1,0-4.664,1.867,3.094,3.094,0,0,0,.415.732,1.6,1.6,0,0,1,.239,1.509,2.913,2.913,0,0,0,.024,2.072,2.826,2.826,0,0,0,.588.91,1.575,1.575,0,0,1,.39,1.378,3.224,3.224,0,0,0,.175,1.783,3.952,3.952,0,0,0,7.295-2.92A3.227,3.227,0,0,0,96.514,17.724Z" transform="translate(-88.271 -9.973)" fill="#97d729"/>
        <path id="Path_135" data-name="Path 135" d="M91.076,22.241a3.225,3.225,0,0,1-.175-1.783,1.575,1.575,0,0,0-.39-1.378,2.828,2.828,0,0,1-.588-.91A2.913,2.913,0,0,1,89.9,16.1a1.6,1.6,0,0,0-.239-1.509,3.1,3.1,0,0,1-.415-.732,2.729,2.729,0,0,1,.928-3.349,2.28,2.28,0,0,0-.391.117,2.669,2.669,0,0,0-1.291,3.535,3.1,3.1,0,0,0,.415.732,1.6,1.6,0,0,1,.239,1.509,2.913,2.913,0,0,0,.024,2.072,2.826,2.826,0,0,0,.588.91,1.575,1.575,0,0,1,.39,1.378,3.224,3.224,0,0,0,.175,1.783,3.742,3.742,0,0,0,4.956,1.81q.191-.076.37-.168a3.692,3.692,0,0,1-4.572-1.944Z" transform="translate(-88.27 -10.46)" fill="#8bc727"/>
        <g id="Group_63" data-name="Group 63" transform="translate(1.91 3.183)">
          <path id="Path_136" data-name="Path 136" d="M119.449,46.431l5.026,12.557" transform="translate(-118.637 -46.431)" fill="none" stroke="#78a91f" stroke-linecap="round" stroke-miterlimit="10" stroke-width="4.652"/>
          <path id="Path_137" data-name="Path 137" d="M131.712,138.469l2.615,1.173" transform="translate(-129.829 -130.434)" fill="none" stroke="#78a91f" stroke-linecap="round" stroke-miterlimit="10" stroke-width="4.652"/>
          <path id="Path_138" data-name="Path 138" d="M115,96.721l2.615,1.173" transform="translate(-114.578 -92.33)" fill="none" stroke="#78a91f" stroke-linecap="round" stroke-miterlimit="10" stroke-width="4.652"/>
          <path id="Path_139" data-name="Path 139" d="M110.148,60.882l1.605.72" transform="translate(-110.148 -59.62)" fill="none" stroke="#78a91f" stroke-linecap="round" stroke-miterlimit="10" stroke-width="4.652"/>
          <path id="Path_140" data-name="Path 140" d="M170.077,138.621l-1.084,2.654" transform="translate(-163.856 -130.572)" fill="none" stroke="#78a91f" stroke-linecap="round" stroke-miterlimit="10" stroke-width="4.652"/>
          <path id="Path_141" data-name="Path 141" d="M153.366,96.873l-1.083,2.654" transform="translate(-148.604 -92.469)" fill="none" stroke="#78a91f" stroke-linecap="round" stroke-miterlimit="10" stroke-width="4.652"/>
          <path id="Path_142" data-name="Path 142" d="M136.525,67.584l-.665,1.629" transform="translate(-133.615 -65.737)" fill="none" stroke="#78a91f" stroke-linecap="round" stroke-miterlimit="10" stroke-width="4.652"/>
        </g>
      </g>
      <g id="Group_66" data-name="Group 66" transform="translate(2.337 6.085)">
        <path id="Path_143" data-name="Path 143" d="M36.833,74.009a1.575,1.575,0,0,1-1.191-.8,2.825,2.825,0,0,0-.684-.839,2.913,2.913,0,0,0-1.963-.662,1.6,1.6,0,0,1-1.362-.692,3.1,3.1,0,0,0-.569-.621,2.527,2.527,0,1,0-3.213,3.862,3.1,3.1,0,0,0,.714.446,1.6,1.6,0,0,1,.928,1.214,2.913,2.913,0,0,0,1.008,1.81,2.826,2.826,0,0,0,.95.521,1.576,1.576,0,0,1,1,1.026,3.224,3.224,0,0,0,1,1.485,3.952,3.952,0,0,0,5.026-6.04A3.225,3.225,0,0,0,36.833,74.009Z" transform="translate(-26.769 -69.697)" fill="#97d729"/>
        <path id="Path_144" data-name="Path 144" d="M33.969,85.93a3.225,3.225,0,0,1-1-1.485,1.575,1.575,0,0,0-1-1.026,2.825,2.825,0,0,1-.95-.521,2.913,2.913,0,0,1-1.008-1.81,1.6,1.6,0,0,0-.928-1.214,3.1,3.1,0,0,1-.714-.446,2.729,2.729,0,0,1-.778-3.387,2.271,2.271,0,0,0-.288.289,2.669,2.669,0,0,0,.547,3.723,3.1,3.1,0,0,0,.714.446,1.6,1.6,0,0,1,.928,1.214,2.912,2.912,0,0,0,1.008,1.81,2.827,2.827,0,0,0,.95.521,1.576,1.576,0,0,1,1,1.026,3.224,3.224,0,0,0,1,1.485,3.742,3.742,0,0,0,5.22-.767q.132-.158.245-.324A3.693,3.693,0,0,1,33.969,85.93Z" transform="translate(-26.769 -75.486)" fill="#8bc727"/>
        <g id="Group_65" data-name="Group 65" transform="translate(2.92 2.923)">
          <path id="Path_145" data-name="Path 145" d="M61.517,103.174l10.4,8.651" transform="translate(-61.403 -103.174)" fill="none" stroke="#78a91f" stroke-linecap="round" stroke-miterlimit="10" stroke-width="4.652"/>
          <path id="Path_146" data-name="Path 146" d="M116.109,176.055l2.858-.213" transform="translate(-111.229 -169.498)" fill="none" stroke="#78a91f" stroke-linecap="round" stroke-miterlimit="10" stroke-width="4.652"/>
          <path id="Path_147" data-name="Path 147" d="M81.542,147.293l2.858-.213" transform="translate(-79.68 -143.247)" fill="none" stroke="#78a91f" stroke-linecap="round" stroke-miterlimit="10" stroke-width="4.652"/>
          <path id="Path_148" data-name="Path 148" d="M60.216,118.945l1.755-.131" transform="translate(-60.216 -117.449)" fill="none" stroke="#78a91f" stroke-linecap="round" stroke-miterlimit="10" stroke-width="4.652"/>
          <path id="Path_149" data-name="Path 149" d="M159.883,154.764l.31,2.85" transform="translate(-151.182 -150.26)" fill="none" stroke="#78a91f" stroke-linecap="round" stroke-miterlimit="10" stroke-width="4.652"/>
          <path id="Path_150" data-name="Path 150" d="M125.317,126l.31,2.85" transform="translate(-119.633 -124.009)" fill="none" stroke="#78a91f" stroke-linecap="round" stroke-miterlimit="10" stroke-width="4.652"/>
          <path id="Path_151" data-name="Path 151" d="M92.718,110.341l.19,1.749" transform="translate(-89.88 -109.715)" fill="none" stroke="#78a91f" stroke-linecap="round" stroke-miterlimit="10" stroke-width="4.652"/>
        </g>
      </g>
      <g id="Group_68" data-name="Group 68" transform="translate(4.873 10.642)">
        <path id="Path_152" data-name="Path 152" d="M136.632,134.534h-3.071l1.124-12.643h1.947Z" transform="translate(-126.774 -121.891)" fill="#aa321e"/>
        <path id="Path_153" data-name="Path 153" d="M63.731,121.891c2.893,0,5.433,2.353,6.566,5.73a24.478,24.478,0,0,0,5.505,9.028,6.769,6.769,0,0,1,1.982,4.67c0,4.433-4.756,8.027-10.622,8.027s-9.647-3.7-10.622-8.027C53.732,128.871,59.76,121.891,63.731,121.891Z" transform="translate(-55.82 -121.891)" fill="#aa321e"/>
        <path id="Path_154" data-name="Path 154" d="M87.232,121.891c2.893,0,5.433,2.353,6.566,5.73a24.477,24.477,0,0,0,5.506,9.028,6.769,6.769,0,0,1,1.982,4.67c0,4.433-4.756,8.027-10.622,8.027s-9.646-3.7-10.622-8.027C77.233,128.871,83.262,121.891,87.232,121.891Z" transform="translate(-77.269 -121.891)" fill="#e33442"/>
        <path id="Path_155" data-name="Path 155" d="M103.744,141.032a3.431,3.431,0,0,1,2.256.958,7.021,7.021,0,0,1,1.9,3.04,26.862,26.862,0,0,0,6.07,9.968,4.26,4.26,0,0,1,1.285,2.922,4.737,4.737,0,0,1-2.249,3.775,10.1,10.1,0,0,1-5.832,1.711,8.392,8.392,0,0,1-5.729-1.983,7.718,7.718,0,0,1-2.414-4.063c-1.906-8.444.738-12.92,1.963-14.452a4.234,4.234,0,0,1,2.748-1.876m0-.953c-.825,0-2.176.587-3.492,2.233s-4.145,6.41-2.149,15.257c.707,3.132,3.507,6.789,9.073,6.789,4.982,0,9.034-2.889,9.034-6.439a5.192,5.192,0,0,0-1.547-3.578,25.917,25.917,0,0,1-5.859-9.615,7.968,7.968,0,0,0-2.172-3.449A4.363,4.363,0,0,0,103.744,140.079Z" transform="translate(-93.781 -138.491)" fill="#fff"/>
        <circle id="Ellipse_15" data-name="Ellipse 15" cx="2.854" cy="2.854" r="2.854" transform="translate(9.355 16.352)" fill="#fff"/>
        <circle id="Ellipse_16" data-name="Ellipse 16" cx="1.915" cy="1.915" r="1.915" transform="translate(10.294 17.291)" fill="#aa321e"/>
        <g id="Group_67" data-name="Group 67" transform="translate(4.506 6.85)">
          <path id="Path_156" data-name="Path 156" d="M119.637,243.658s-2.591,4.487-6.421,4.58a22.01,22.01,0,0,0-5.788,1.142" transform="translate(-107.428 -239.877)" fill="none" stroke="#fff" stroke-miterlimit="10" stroke-width="0.2"/>
          <path id="Path_157" data-name="Path 157" d="M123.641,201.358s-5.64-2.267-9.9,0" transform="translate(-113.19 -200.351)" fill="none" stroke="#fff" stroke-miterlimit="10" stroke-width="0.2"/>
          <path id="Path_158" data-name="Path 158" d="M175.6,349.962s-5.953.013-8.651,1.921a31.248,31.248,0,0,1-3.974,2.512" transform="translate(-158.122 -336.9)" fill="none" stroke="#fff" stroke-miterlimit="10" stroke-width="0.2"/>
        </g>
      </g>
    </g>
  </g>
</svg>
