<svg xmlns="http://www.w3.org/2000/svg" xmlns:xlink="http://www.w3.org/1999/xlink" width="30" height="30" viewBox="0 0 30 30"><defs><style>.a{fill:#fff;}.b{fill:none;}.c{fill:#74368c;}.d{filter:url(#a);}</style><filter id="a" x="0" y="0" width="30" height="30" filterUnits="userSpaceOnUse"><feOffset input="SourceAlpha"/><feGaussianBlur stdDeviation="1" result="b"/><feFlood flood-opacity="0.161"/><feComposite operator="in" in2="b"/><feComposite in="SourceGraphic"/></filter></defs><g transform="translate(-141 -869)"><g class="d" transform="matrix(1, 0, 0, 1, 141, 869)"><circle class="a" cx="12" cy="12" r="12" transform="translate(3 3)"/></g><g transform="translate(148 876)"><path class="b" d="M0,0H16V16H0ZM12.207,4l-1.84,3.333Z"/><path class="c" d="M5,12.333a1.333,1.333,0,1,0,1.333,1.333A1.332,1.332,0,0,0,5,12.333Zm6.667,0A1.333,1.333,0,1,0,13,13.667,1.332,1.332,0,0,0,11.667,12.333ZM5.113,10.167l.02-.08L5.733,9H10.7a1.327,1.327,0,0,0,1.167-.687L14.786,3H13.273L12.54,4.333,10.7,7.667H6.02l-.087-.18L4.44,4.333,3.807,3,3.18,1.667H1V3H2.333l2.4,5.06-.9,1.633a1.289,1.289,0,0,0-.167.64A1.337,1.337,0,0,0,5,11.667h8V10.333H5.28A.169.169,0,0,1,5.113,10.167Z" transform="translate(-0.333 -0.333)"/><path class="c" d="M-.578-.656l12.2.063L10.875.672H.047Z" transform="translate(3 3)"/></g></g></svg>