<svg xmlns="http://www.w3.org/2000/svg" xmlns:xlink="http://www.w3.org/1999/xlink" width="94" height="94" viewBox="0 0 94 94">
  <defs>
    <filter id="Ellipse_8" x="0" y="0" width="94" height="94" filterUnits="userSpaceOnUse">
      <feOffset input="SourceAlpha"/>
      <feGaussianBlur stdDeviation="1" result="blur"/>
      <feFlood flood-opacity="0.161"/>
      <feComposite operator="in" in2="blur"/>
      <feComposite in="SourceGraphic"/>
    </filter>
  </defs>
  <g id="Group_43" data-name="Group 43" transform="translate(2.754 3.301)">
    <g transform="matrix(1, 0, 0, 1, -2.75, -3.3)" filter="url(#Ellipse_8)">
      <circle id="Ellipse_8-2" data-name="Ellipse 8" cx="44" cy="44" r="44" transform="translate(3 3)" fill="#fff"/>
    </g>
    <g id="cake" transform="translate(21.844 22.04)">
      <path id="Path_113" data-name="Path 113" d="M397,197l1.732,27.281a1.3,1.3,0,0,0,.456-.083l.131-.031a10.409,10.409,0,0,0,4.352-2.026c2.182-1.793,3.288-4.425,3.288-7.82V197Z" transform="translate(-362.618 -179.939)" fill="#ff7038"/>
      <path id="Path_114" data-name="Path 114" d="M0,197v13.857a1.3,1.3,0,0,0,.872,1.227l34.815,12.125a1.3,1.3,0,0,0,.427.072h0V197Z" transform="translate(0 -179.939)" fill="#ffde46"/>
      <path id="Path_115" data-name="Path 115" d="M237,218.928l15.161,5.28a1.3,1.3,0,0,0,.427.072h0V197H237Z" transform="translate(-216.475 -179.939)" fill="#ff9d21"/>
      <path id="Path_116" data-name="Path 116" d="M0,258.644l36.114,12.577V268.47L0,255.893Z" transform="translate(0 -233.731)" fill="#f5f0eb"/>
      <path id="Path_117" data-name="Path 117" d="M237,341.181l15.589,5.429v-2.751L237,338.43Z" transform="translate(-216.475 -309.12)" fill="#ebe1dc"/>
      <path id="Path_118" data-name="Path 118" d="M36.774,42.18a1.3,1.3,0,0,0-1.089-.107c-1.756.615-8.539,2.975-15.721,5.475C11.79,50.392,3.338,53.334.87,54.2a1.3,1.3,0,0,0,0,2.453l22.684,7.9v6.462a3.031,3.031,0,0,0,6.062,0V66.662l6.066,2.113a1.3,1.3,0,0,0,1.089-.107c.309-.182,7.568-4.56,7.568-13.244C44.342,55.065,44.256,46.589,36.774,42.18Z" transform="translate(0 -38.363)" fill="#ffef7b"/>
      <path id="Path_119" data-name="Path 119" d="M253.248,42.18a1.3,1.3,0,0,0-1.089-.107c-1.71.6-8.189,2.853-15.16,5.279V63.5l3.031,1.056v6.462a3.031,3.031,0,1,0,6.062,0V66.662l6.066,2.113a1.3,1.3,0,0,0,1.089-.107c.309-.182,7.568-4.56,7.568-13.244C260.816,55.065,260.73,46.589,253.248,42.18Z" transform="translate(-216.475 -38.363)" fill="#ffde46"/>
      <g id="Group_42" data-name="Group 42" transform="translate(29.186 10.133)">
        <circle id="Ellipse_4" data-name="Ellipse 4" cx="1.299" cy="1.299" r="1.299" transform="translate(5.196)" fill="#ff9d21"/>
        <circle id="Ellipse_5" data-name="Ellipse 5" cx="1.299" cy="1.299" r="1.299" transform="translate(6.928 6.062)" fill="#ff9d21"/>
        <circle id="Ellipse_6" data-name="Ellipse 6" cx="1.299" cy="1.299" r="1.299" transform="translate(2.598 11.259)" fill="#ff9d21"/>
        <circle id="Ellipse_7" data-name="Ellipse 7" cx="1.299" cy="1.299" r="1.299" transform="translate(0 5.196)" fill="#ff9d21"/>
      </g>
      <path id="Path_120" data-name="Path 120" d="M186.76,7.8a1.3,1.3,0,0,1-1.3-1.3,4.283,4.283,0,0,0-2.38-3.852l-.366-.183A1.3,1.3,0,1,1,183.877.138l.366.183A6.867,6.867,0,0,1,188.059,6.5,1.3,1.3,0,0,1,186.76,7.8Z" transform="translate(-166.235 -0.001)" fill="#beda4b"/>
      <path id="Path_121" data-name="Path 121" d="M237,33.675a1.3,1.3,0,0,0,1.3-1.3,6.882,6.882,0,0,0-1.3-4.042Z" transform="translate(-216.475 -25.88)" fill="#14cd6e"/>
      <path id="Path_122" data-name="Path 122" d="M177.629,71.259a5.629,5.629,0,1,1,5.629-5.629A5.636,5.636,0,0,1,177.629,71.259Z" transform="translate(-157.104 -54.804)" fill="#ff4169"/>
      <path id="Path_123" data-name="Path 123" d="M242.629,65.629A5.636,5.636,0,0,0,237,60V71.259A5.636,5.636,0,0,0,242.629,65.629Z" transform="translate(-216.475 -54.804)" fill="#cf3160"/>
    </g>
  </g>
</svg>
