<svg xmlns="http://www.w3.org/2000/svg" xmlns:xlink="http://www.w3.org/1999/xlink" width="94" height="95" viewBox="0 0 94 95">
  <defs>
    <filter id="Ellipse_3" x="0" y="0" width="94" height="95" filterUnits="userSpaceOnUse">
      <feOffset input="SourceAlpha"/>
      <feGaussianBlur stdDeviation="1" result="blur"/>
      <feFlood flood-opacity="0.161"/>
      <feComposite operator="in" in2="blur"/>
      <feComposite in="SourceGraphic"/>
    </filter>
  </defs>
  <g id="Group_40" data-name="Group 40" transform="translate(2.5 3.3)">
    <g transform="matrix(1, 0, 0, 1, -2.5, -3.3)" filter="url(#Ellipse_3)">
      <ellipse id="Ellipse_3-2" data-name="Ellipse 3" cx="44" cy="44.5" rx="44" ry="44.5" transform="translate(3 3)" fill="#fff"/>
    </g>
    <g id="Page-1" transform="translate(22.2 22.2)">
      <g id="_044---Fruity-Drink" data-name="044---Fruity-Drink" transform="translate(0 0)">
        <path id="Shape" d="M12.806,6.06l.008.008A4.548,4.548,0,0,1,15.8,7.377a11.535,11.535,0,0,1,2.54,4.659l-3.928,4.321a11.833,11.833,0,0,1-5.08-2.6A4.4,4.4,0,0,1,8,10.817l1.053-3.7Z" transform="translate(-2.655 -1.511)" fill="#e64c3c"/>
        <path id="Shape-2" data-name="Shape" d="M14.248,1.845a4.456,4.456,0,0,1-1.1,2.966c-.008.008-.015.015-.023.015C11.784,6.136,9.374,5.88,9.374,5.88s-.259-2.409,1.083-3.726A4.588,4.588,0,0,1,13.462,1.07a.763.763,0,0,1,.564.218.742.742,0,0,1,.221.557Z" transform="translate(-2.976 -0.277)" fill="#4fba6f"/>
        <path id="Shape-3" data-name="Shape" d="M6.814,11.156l-.023.023a4.578,4.578,0,0,1-3.005,1.076.763.763,0,0,1-.564-.218A.742.742,0,0,1,3,11.48,4.418,4.418,0,0,1,4.1,8.514C5.433,7.19,7.866,7.453,7.866,7.453a5.108,5.108,0,0,1-1.053,3.7Z" transform="translate(-1.468 -1.851)" fill="#4fba6f"/>
        <path id="Shape-4" data-name="Shape" d="M7.88,7a.768.768,0,0,1-.546-.226C4.849,4.258,3.782,4.069,3.772,4.068a.741.741,0,0,1-.527-.224.721.721,0,0,1-.2-.529.784.784,0,0,1,.794-.753c.345,0,1.7.226,4.592,3.161a.745.745,0,0,1,.158.819A.763.763,0,0,1,7.88,7Z" transform="translate(-1.478 -0.647)" fill="#4c8056"/>
        <ellipse id="Oval" cx="0.763" cy="0.753" rx="0.763" ry="0.753" transform="translate(10.685 7.514)" fill="#f0c419"/>
        <ellipse id="Oval-2" data-name="Oval" cx="0.763" cy="0.753" rx="0.763" ry="0.753" transform="translate(8.396 9.773)" fill="#f0c419"/>
        <path id="Shape-5" data-name="Shape" d="M16.018,52.2a5.17,5.17,0,0,1-4.1.866,4.258,4.258,0,0,1-1.015-.406,4.448,4.448,0,0,1-1.022.406c-3.272.828-7.033-2.394-8.4-7.211s.2-9.394,3.478-10.222a5.066,5.066,0,0,1,3.989.8,3.677,3.677,0,0,0,3.9,0,7.048,7.048,0,0,1,1.266-.625l2.9,7.6C17.032,43.528,15.964,52.094,16.018,52.2Z" transform="translate(-0.992 -8.794)" fill="#e64c3c"/>
        <path id="Shape-6" data-name="Shape" d="M5.145,46.547A.761.761,0,0,1,4.41,46a8.24,8.24,0,0,1,.371-6.189,2.442,2.442,0,0,1,1.465-1.241.77.77,0,0,1,.735.2.746.746,0,0,1,.191.729.759.759,0,0,1-.545.528,1.089,1.089,0,0,0-.524.535,6.841,6.841,0,0,0-.222,5.032.745.745,0,0,1-.128.658.766.766,0,0,1-.609.3Z" transform="translate(-1.706 -9.543)" fill="#fff"/>
        <path id="Shape-7" data-name="Shape" d="M11.952,33.327C11.678,34.4,9.908,34.9,7.986,34.434a13.925,13.925,0,0,1-4.3-2.71.5.5,0,0,1-.165-.508.5.5,0,0,1,.394-.365,14.564,14.564,0,0,1,5.057-.331C10.892,30.986,12.227,32.243,11.952,33.327Z" transform="translate(-1.588 -7.529)" fill="#4fba6f"/>
        <path id="Shape-8" data-name="Shape" d="M36.981,49.346a1.535,1.535,0,0,1-1.381.866H21.2a1.5,1.5,0,0,1-1.426-.994,1.058,1.058,0,0,1-.092-.346L17.873,32.824,16.82,23.46l2.426,1.2a6.9,6.9,0,0,0,6.1,0,6.916,6.916,0,0,1,6.095,0l.008.008a6.933,6.933,0,0,0,6.095,0l2.433-1.2L38.552,36.128Z" transform="translate(-4.747 -5.814)" fill="#f29c1f"/>
        <path id="Shape-9" data-name="Shape" d="M40.4,15.671l-.618,5.45-2.433,1.2a6.933,6.933,0,0,1-6.095,0l-.008-.008a6.916,6.916,0,0,0-6.095,0,6.9,6.9,0,0,1-6.1,0l-2.426-1.2h-.008l-.313-2.8-.3-2.65a1.5,1.5,0,0,1,.382-1.169,1.539,1.539,0,0,1,1.136-.5H38.883a1.539,1.539,0,0,1,1.136.5A1.5,1.5,0,0,1,40.4,15.671Z" transform="translate(-4.552 -3.475)" fill="#9fc9d3"/>
        <path id="Shape-10" data-name="Shape" d="M24.763,41.4a.766.766,0,0,1-.626-.323.744.744,0,0,1-.089-.691L37.015,5.765a.754.754,0,0,1,.278-.355L44.921.14a.769.769,0,0,1,1.043.2A.746.746,0,0,1,45.8,1.373L38.363,6.508,25.478,40.913A.762.762,0,0,1,24.763,41.4Z" transform="translate(-6.45 -0.017)" fill="#ff5364"/>
        <g id="Group_41" data-name="Group 41" transform="translate(16.024 22.569)">
          <ellipse id="Oval-3" data-name="Oval" cx="1.907" cy="1.882" rx="1.907" ry="1.882" fill="#d25627"/>
          <ellipse id="Oval-4" data-name="Oval" cx="0.763" cy="0.753" rx="0.763" ry="0.753" transform="translate(0 6.775)" fill="#d25627"/>
          <ellipse id="Oval-5" data-name="Oval" cx="0.763" cy="0.753" rx="0.763" ry="0.753" transform="translate(0.763 10.538)" fill="#d25627"/>
        </g>
        <path id="Shape-11" data-name="Shape" d="M52.94,50.037a11.421,11.421,0,0,1-7.475,2.732,11.538,11.538,0,0,1-8.108-3.312,11.233,11.233,0,0,1-3.356-8,11.1,11.1,0,0,1,2.769-7.377.77.77,0,0,1,1.129-.06L39.5,35.6a8.226,8.226,0,0,0,.029,11.714,8.494,8.494,0,0,0,11.87.029L53,48.922a.746.746,0,0,1-.061,1.114Z" transform="translate(-8.822 -8.371)" fill="#f0c419"/>
        <path id="Shape-12" data-name="Shape" d="M52.346,47.933a8.327,8.327,0,0,1-4.432,2.281,7.779,7.779,0,0,1-1.51.143h-.015a8.442,8.442,0,0,1-5.355-1.935,6.776,6.776,0,0,1-1.083-1.069,8.2,8.2,0,0,1-1.96-5.284v-.015a7.483,7.483,0,0,1,.145-1.49,8.145,8.145,0,0,1,2.311-4.373Z" transform="translate(-9.768 -8.962)" fill="#f3d55b"/>
        <path id="Shape-13" data-name="Shape" d="M47.914,51.65a7.778,7.778,0,0,1-1.51.143h-.015l-.008-7.219-5.347,5.284A6.776,6.776,0,0,1,39.95,48.79l5.355-5.277-7.315-.008V43.49A7.482,7.482,0,0,1,38.135,42l6.751.008,3.021,2.981Z" transform="translate(-9.768 -10.398)" fill="#f29c1f"/>
        <path id="Shape-14" data-name="Shape" d="M13.753,38.142a.758.758,0,0,1-.763-.753V35.884c0-3.839,1.947-5.6,3.108-6.309a.769.769,0,0,1,1.031.255.747.747,0,0,1-.229,1.025c-.891.543-2.384,1.917-2.384,5.027v1.505a.748.748,0,0,1-.223.533.768.768,0,0,1-.54.221Z" transform="translate(-3.838 -7.301)" fill="#805333"/>
        <path id="Shape-15" data-name="Shape" d="M39.417,14l-3.2,8.544c-.168-.068-.336-.135-.5-.218l-.008-.008a5.754,5.754,0,0,0-.9-.361L37.785,14Z" transform="translate(-9.014 -3.475)" fill="#df4d60"/>
        <path id="Shape-16" data-name="Shape" d="M33.153,24.939c.168.083.336.151.5.218L25.48,46.986a.763.763,0,0,1-.717.489.828.828,0,0,1-.267-.045.759.759,0,0,1-.45-.971l8.2-21.889a5.754,5.754,0,0,1,.9.361Z" transform="translate(-6.45 -6.088)" fill="#c03a2b"/>
      </g>
    </g>
  </g>
</svg>
