<svg xmlns="http://www.w3.org/2000/svg" xmlns:xlink="http://www.w3.org/1999/xlink" width="30" height="30" viewBox="0 0 30 30"><defs><style>.a{fill:#f0d283;}.b{fill:none;}.c{fill:#74368c;stroke:#74368c;stroke-width:1.2px;}.d{filter:url(#a);}</style><filter id="a" x="0" y="0" width="30" height="30" filterUnits="userSpaceOnUse"><feOffset input="SourceAlpha"/><feGaussianBlur stdDeviation="1" result="b"/><feFlood flood-opacity="0.161"/><feComposite operator="in" in2="b"/><feComposite in="SourceGraphic"/></filter></defs><g transform="translate(-221 -213)"><g class="d" transform="matrix(1, 0, 0, 1, 221, 213)"><circle class="a" cx="12" cy="12" r="12" transform="translate(3 3)"/></g><g transform="translate(228 220)"><path class="b" d="M0,0H16V16H0Z"/><path class="c" d="M8,13.35l-.87-.745C4.04,9.971,2,8.234,2,6.1A3.174,3.174,0,0,1,5.3,3,3.691,3.691,0,0,1,8,4.179,3.691,3.691,0,0,1,10.7,3,3.174,3.174,0,0,1,14,6.1c0,2.132-2.04,3.869-5.13,6.509Z"/></g></g></svg>