<svg xmlns="http://www.w3.org/2000/svg" xmlns:xlink="http://www.w3.org/1999/xlink" width="354" height="90" viewBox="0 0 354 90"><defs><style>.a,.c{fill:#74368c;}.b{clip-path:url(#a);}.c{stroke:#fff;}</style><clipPath id="a"><rect class="a" width="354" height="90" transform="translate(0 0)"/></clipPath></defs><g transform="translate(0 0.143)"><g class="b" transform="translate(0 -0.143)"><path class="a" d="M120.2,17.429v3.617c-3.9,0-5.015-.6-6.475-2.792-1.016,4.949-5.268,8.059-10.443,8.059A10.82,10.82,0,0,1,92.357,15.3V11.75h3.557v3.141c0,4.917,2.856,8,7.458,8,4.126,0,7.239-2.729,7.239-5.965a3.075,3.075,0,0,0-3.207-3.363,3.494,3.494,0,0,0-.572.032V10.354h1.4a6.788,6.788,0,0,1,6.285,3.775c1.3,2.38,2.539,3.3,4.348,3.3Zm-18.156,15.9H98.547V29.8h3.492Zm6,0h-3.492V29.8h3.492Z" transform="translate(4.757 0.78)"/><path class="a" d="M120.2,17.429v3.617c-3.9,0-5.015-.6-6.475-2.792-1.016,4.949-5.268,8.059-10.443,8.059A10.82,10.82,0,0,1,92.357,15.3V11.75h3.557v3.141c0,4.917,2.856,8,7.458,8,4.126,0,7.239-2.729,7.239-5.965a3.075,3.075,0,0,0-3.207-3.363,3.494,3.494,0,0,0-.572.032V10.354h1.4a6.788,6.788,0,0,1,6.285,3.775c1.3,2.38,2.539,3.3,4.348,3.3Zm-18.156,15.9H98.547V29.8h3.492Zm6,0h-3.492V29.8h3.492Z" transform="translate(4.757 0.78)"/><rect class="a" width="7.015" height="3.616" transform="translate(124.069 18.209)"/><rect class="a" width="7.015" height="3.616" transform="translate(124.069 18.209)"/><rect class="a" width="7.016" height="3.616" transform="translate(130.354 18.209)"/><rect class="a" width="7.016" height="3.616" transform="translate(130.354 18.209)"/><rect class="a" width="7.015" height="3.616" transform="translate(136.64 18.209)"/><rect class="a" width="7.015" height="3.616" transform="translate(136.64 18.209)"/><rect class="a" width="7.016" height="3.616" transform="translate(142.925 18.209)"/><rect class="a" width="7.016" height="3.616" transform="translate(142.925 18.209)"/><rect class="a" width="7.016" height="3.616" transform="translate(149.211 18.209)"/><rect class="a" width="7.016" height="3.616" transform="translate(149.211 18.209)"/><rect class="a" width="7.015" height="3.616" transform="translate(155.497 18.209)"/><rect class="a" width="7.015" height="3.616" transform="translate(155.497 18.209)"/><rect class="a" width="7.015" height="3.616" transform="translate(161.783 18.209)"/><rect class="a" width="7.015" height="3.616" transform="translate(161.783 18.209)"/><rect class="a" width="7.016" height="3.616" transform="translate(168.066 18.209)"/><rect class="a" width="7.016" height="3.616" transform="translate(168.066 18.209)"/><path class="a" d="M180.321,21.519H165.783V17.9h3.3a2.157,2.157,0,0,0,2.128-1.079,5.594,5.594,0,0,0,.38-2.411V1.055h3.525V14.223c0,1.872-.253,3.076-.763,3.68h5.969Z" transform="translate(8.539 0.306)"/><path class="a" d="M180.321,21.519H165.783V17.9h3.3a2.157,2.157,0,0,0,2.128-1.079,5.594,5.594,0,0,0,.38-2.411V1.055h3.525V14.223c0,1.872-.253,3.076-.763,3.68h5.969Z" transform="translate(8.539 0.306)"/><path class="a" d="M200,19.333v2.221H178.765V17.937h17.427a7.7,7.7,0,0,0-1.716-5.044,6.728,6.728,0,0,0-5.491-2.411h-7.925l8.806-10.1,4.326.08-6.11,6.692H189.4a10.517,10.517,0,0,1,6.1,1.745c3.015,2,4.508,5.456,4.508,10.438" transform="translate(9.208 0.272)"/><path class="a" d="M200,19.333v2.221H178.765V17.937h17.427a7.7,7.7,0,0,0-1.716-5.044,6.728,6.728,0,0,0-5.491-2.411h-7.925l8.806-10.1,4.326.08-6.11,6.692H189.4a10.517,10.517,0,0,1,6.1,1.745C198.507,10.894,200,14.351,200,19.333Z" transform="translate(9.208 0.272)"/><path class="a" d="M219.862,21.226h-4.319c-.476,3.49-2.793,5.235-6.92,5.235V23.67a3.264,3.264,0,0,0,3.525-2.443h-3.4a7.114,7.114,0,0,1-6.95-7.391,6.835,6.835,0,0,1,7.111-7.043c3.871,0,6.6,2.981,6.6,7.138v3.68h4.349Zm-7.9-3.616V13.264c-.192-1.872-1.271-3.2-3.112-3.2a3.31,3.31,0,0,0-3.429,3.585,3.7,3.7,0,0,0,3.4,3.966Z" transform="translate(10.394 0.598)"/><path class="a" d="M219.862,21.226h-4.319c-.476,3.49-2.793,5.235-6.92,5.235V23.67a3.264,3.264,0,0,0,3.525-2.443h-3.4a7.114,7.114,0,0,1-6.95-7.391,6.835,6.835,0,0,1,7.111-7.043c3.871,0,6.6,2.981,6.6,7.138v3.68h4.349Zm-7.9-3.616V13.264c-.192-1.872-1.271-3.2-3.112-3.2a3.31,3.31,0,0,0-3.429,3.585,3.7,3.7,0,0,0,3.4,3.966Z" transform="translate(10.394 0.598)"/><rect class="a" width="7.016" height="3.616" transform="translate(229.045 18.209)"/><rect class="a" width="7.016" height="3.616" transform="translate(229.045 18.209)"/><rect class="a" width="7.016" height="3.616" transform="translate(235.329 18.209)"/><rect class="a" width="7.016" height="3.616" transform="translate(235.329 18.209)"/><rect class="a" width="7.016" height="3.616" transform="translate(241.617 18.209)"/><rect class="a" width="7.016" height="3.616" transform="translate(241.617 18.209)"/><path class="a" d="M244.747,15.777c0,3.838-1.778,5.742-5.333,5.742h-3.748V17.9h3.016a2.251,2.251,0,0,0,2.255-1.047,6.975,6.975,0,0,0,.252-2.284V1.056h3.557Z" transform="translate(12.139 0.306)"/><path class="a" d="M244.747,15.777c0,3.838-1.778,5.742-5.333,5.742h-3.748V17.9h3.016a2.251,2.251,0,0,0,2.255-1.047,6.975,6.975,0,0,0,.252-2.284V1.056h3.557Z" transform="translate(12.139 0.306)"/><path class="c" d="M0,41.017H8.018v38.31h23.99v7.3H0Z" transform="translate(0 2.341)"/><path class="c" d="M37.623,63.989v-.13c0-12.835,9.909-23.586,23.925-23.586S85.343,50.894,85.343,63.729v.13c0,12.835-9.909,23.586-23.925,23.586S37.623,76.824,37.623,63.989m39.31,0v-.13c0-8.861-6.454-16.223-15.515-16.223S46.033,54.867,46.033,63.729v.13c0,8.861,6.453,16.223,15.515,16.223s15.385-7.231,15.385-16.093" transform="translate(1.938 2.303)"/><path class="c" d="M95.894,41.017h8.018V63.952l21.709-22.934h9.843l-18.97,19.611,19.818,26H126.6L111.018,66.1l-7.106,7.3V86.624H95.894Z" transform="translate(4.939 2.341)"/><path class="c" d="M263.992,41.263h8.018v38.31H296v7.3H263.992Z" transform="translate(13.598 2.354)"/><path class="c" d="M312.625,68.888,294.5,41.263h9.452l12.776,20.2,12.909-20.2h9.191l-18.123,27.43V86.871h-8.083Z" transform="translate(15.17 2.354)"/><path class="c" d="M205.549,79.262l-4.488-5.652L174.654,40.34,139.375,86.877h9.235l26.177-34.531L202.2,86.877h9.4Z" transform="translate(7.179 2.307)"/><rect class="c" width="13.64" height="7.169" transform="translate(175.232 72.871)"/><rect class="c" width="13.64" height="7.169" transform="translate(228.557 72.871)"/><path class="c" d="M190.453,40.226h-7.361v8.452l7.361,9.165Z" transform="translate(9.431 2.301)"/><path class="c" d="M223.379,40.279,200.613,71.356l4.771,5.941,18.23-24.885L250.97,86.881h9.4Z" transform="translate(10.333 2.304)"/><path class="c" d="M202.308,77.378h0l-.025-.032Z" transform="translate(10.419 4.191)"/></g></g></svg>