<svg xmlns="http://www.w3.org/2000/svg" xmlns:xlink="http://www.w3.org/1999/xlink" width="94" height="95" viewBox="0 0 94 95">
  <defs>
    <filter id="Ellipse_3" x="0" y="0" width="94" height="95" filterUnits="userSpaceOnUse">
      <feOffset input="SourceAlpha"/>
      <feGaussianBlur stdDeviation="1" result="blur"/>
      <feFlood flood-opacity="0.161"/>
      <feComposite operator="in" in2="blur"/>
      <feComposite in="SourceGraphic"/>
    </filter>
  </defs>
  <g id="Group_39" data-name="Group 39" transform="translate(2.5 3.3)">
    <g transform="matrix(1, 0, 0, 1, -2.5, -3.3)" filter="url(#Ellipse_3)">
      <ellipse id="Ellipse_3-2" data-name="Ellipse 3" cx="44" cy="44.5" rx="44" ry="44.5" transform="translate(3 3)" fill="#fff"/>
    </g>
    <g id="pizza" transform="translate(22.2 22.2)">
      <path id="Path_98" data-name="Path 98" d="M40.415,72.514l-.624-1.507L32.62,53.683a.651.651,0,0,0-.352-.352l-18.846-7.8a.65.65,0,0,0-.865.392l-1.169,3.454L.136,82.618l0,.01A2.5,2.5,0,0,0,3.305,85.8l21.326-7.214,1.181-1.22L31.24,76.35l5.33-1.8,3.453-1.168a.651.651,0,0,0,.392-.865Z" transform="translate(0 -41.534)" fill="#f9d11f"/>
      <path id="Path_99" data-name="Path 99" d="M40.024,342.246l-3.453,1.168-5.33,1.8-5.428,1.016-1.181,1.22L3.306,354.667A2.5,2.5,0,0,1,.134,351.5l0-.01a3.443,3.443,0,0,0,3.353.657l36.3-12.269.624,1.507a.651.651,0,0,1-.392.865Z" transform="translate(0 -310.401)" fill="#ffa402"/>
      <path id="Path_100" data-name="Path 100" d="M159.967,73.379l-3.453,1.168c-.167-.712-.374-1.461-.628-2.24a34.759,34.759,0,0,0-8.77-13.746c-5.836-5.833-11.372-8.137-15.759-9.165l-.025-.023L132.5,45.92a.65.65,0,0,1,.865-.392l18.846,7.8a.651.651,0,0,1,.352.352l7.172,17.323.624,1.507a.651.651,0,0,1-.392.865Z" transform="translate(-119.943 -41.534)" fill="#fdeda5"/>
      <path id="Path_101" data-name="Path 101" d="M418.558,342.246l-3.453,1.168c-.167-.712-.374-1.461-.628-2.24l3.849-1.3.624,1.507a.651.651,0,0,1-.392.865Z" transform="translate(-378.534 -310.401)" fill="#fbdf63"/>
      <path id="Path_102" data-name="Path 102" d="M159.792,30.3c-.966-4.606-3.683-11.662-11.135-19.115S134.146,1.022,129.539.055a2.6,2.6,0,0,0-3.04,1.872c-.012.045-.022.089-.032.135a2.592,2.592,0,0,0,2.006,3.072c3.918.822,9.963,3.175,16.514,9.723s8.9,12.594,9.725,16.51a2.577,2.577,0,0,0,.7,1.3h0a2.588,2.588,0,0,0,2.369.706c.045-.01.091-.02.136-.033a2.593,2.593,0,0,0,1.871-3.039Z" transform="translate(-115.448 0)" fill="#f79e60"/>
      <path id="Path_103" data-name="Path 103" d="M160.722,30.3c-.966-4.606-3.683-11.662-11.135-19.115S135.077,1.022,130.469.055a2.6,2.6,0,0,0-3.04,1.872,2.578,2.578,0,0,1,1.2-.032c4.608.966,11.664,3.682,19.118,11.132s10.169,14.508,11.135,19.115a2.562,2.562,0,0,1-.032,1.2,2.593,2.593,0,0,0,1.871-3.039Z" transform="translate(-116.379 0)" fill="#d77d41"/>
      <g id="Group_36" data-name="Group 36" transform="translate(10.193 13.133)">
        <path id="Path_104" data-name="Path 104" d="M151.169,155.539a4.069,4.069,0,0,0-1.2-2.9h0a4.1,4.1,0,1,0-5.793,5.792h0a4.1,4.1,0,0,0,6.992-2.9Z" transform="translate(-140.772 -151.446)" fill="#ed2061"/>
        <path id="Path_105" data-name="Path 105" d="M124.538,301.126h0a4.1,4.1,0,1,0-5.793,5.791h0a4.1,4.1,0,1,0,5.793-5.792Z" transform="translate(-117.545 -287.052)" fill="#ed2061"/>
        <path id="Path_106" data-name="Path 106" d="M274.965,348.279l-6.615,2.22-.285-.285a4.1,4.1,0,1,1,6.954-2.335Z" transform="translate(-253.917 -326.595)" fill="#ed2061"/>
      </g>
      <path id="Path_107" data-name="Path 107" d="M276.786,376.23l-6.615,2.22-.285-.285a4.081,4.081,0,0,1-1.027-1.711l7.762-2.623a4.084,4.084,0,0,1,.219,2Z" transform="translate(-245.545 -341.413)" fill="#c71e54"/>
      <g id="Group_37" data-name="Group 37" transform="translate(5.232 23.334)">
        <path id="Path_108" data-name="Path 108" d="M64.9,399.3a.65.65,0,0,0-.55-.55,5.094,5.094,0,0,0-1.115-.015,2.894,2.894,0,0,0-2.88,2.879,5.082,5.082,0,0,0,.016,1.115.65.65,0,0,0,.55.55,5.085,5.085,0,0,0,1.115.015,2.894,2.894,0,0,0,2.88-2.879A5.087,5.087,0,0,0,64.9,399.3Z" transform="translate(-60.328 -387.467)" fill="#68c044"/>
        <path id="Path_109" data-name="Path 109" d="M244.239,273.856a5.081,5.081,0,0,0,.269-1.082,2.894,2.894,0,0,0-2.147-3.46,5.085,5.085,0,0,0-1.089-.239.65.65,0,0,0-.661.41,5.088,5.088,0,0,0-.269,1.082,3.246,3.246,0,0,0,.362,2.172,2.5,2.5,0,0,0,.359.45,3.625,3.625,0,0,0,1.427.839,5.079,5.079,0,0,0,1.089.239A.65.65,0,0,0,244.239,273.856Z" transform="translate(-224.692 -269.072)" fill="#68c044"/>
      </g>
      <g id="Group_38" data-name="Group 38" transform="translate(10.74 20.452)">
        <path id="Path_110" data-name="Path 110" d="M126.038,251.842l-.992-1.547a.65.65,0,0,0-1.095.7l.992,1.547a.65.65,0,1,0,1.095-.7Z" transform="translate(-123.848 -248.768)" fill="#fdeda5"/>
        <path id="Path_111" data-name="Path 111" d="M283.131,237.2l-1.4-1.2a.65.65,0,0,0-.884.953l.037.034,1.4,1.2a.65.65,0,1,0,.846-.988Z" transform="translate(-267.063 -235.844)" fill="#fdeda5"/>
        <path id="Path_112" data-name="Path 112" d="M228.926,369.948l.175-1.677a.65.65,0,0,0-1.294-.135l-.175,1.677a.65.65,0,1,0,1.294.135Z" transform="translate(-218.629 -356.132)" fill="#fdeda5"/>
      </g>
    </g>
  </g>
</svg>
