<svg xmlns="http://www.w3.org/2000/svg" xmlns:xlink="http://www.w3.org/1999/xlink" width="95" height="95" viewBox="0 0 95 95">
  <defs>
    <filter id="Ellipse_2" x="0" y="0" width="95" height="95" filterUnits="userSpaceOnUse">
      <feOffset input="SourceAlpha"/>
      <feGaussianBlur stdDeviation="1" result="blur"/>
      <feFlood flood-opacity="0.161"/>
      <feComposite operator="in" in2="blur"/>
      <feComposite in="SourceGraphic"/>
    </filter>
  </defs>
  <g id="Group_35" data-name="Group 35" transform="translate(3.36 3.216)">
    <g transform="matrix(1, 0, 0, 1, -3.36, -3.22)" filter="url(#Ellipse_2)">
      <circle id="Ellipse_2-2" data-name="Ellipse 2" cx="44.5" cy="44.5" r="44.5" transform="translate(3 3)" fill="#fff"/>
    </g>
    <path id="star" d="M44.387,16.261a2.352,2.352,0,0,0-2.034-1.589L29.506,13.531,24.429,1.9a2.387,2.387,0,0,0-4.352,0L15,13.531,2.15,14.672A2.359,2.359,0,0,0,.116,16.261a2.285,2.285,0,0,0,.69,2.46l9.711,8.331L7.654,39.388a2.289,2.289,0,0,0,.92,2.389,2.4,2.4,0,0,0,2.6.113l11.078-6.48,11.076,6.48a2.408,2.408,0,0,0,2.6-.113,2.289,2.289,0,0,0,.92-2.389L33.986,27.051,43.7,18.72a2.284,2.284,0,0,0,.69-2.46ZM22.465,35.285" transform="translate(22.522 24.699)" fill="#ffad1e"/>
  </g>
</svg>
